<svg width="80" height="23" viewBox="0 0 80 23" fill="none" xmlns="http://www.w3.org/2000/svg">
<path d="M2.2 16.98C1.608 16.532 1.232 16.188 1.072 15.948C0.912 15.692 0.816 15.388 0.784 15.036C0.752 14.748 0.752 14.356 0.784 13.86C0.832 13.364 0.888 12.876 0.952 12.396C1.016 11.916 1.072 11.556 1.12 11.316C1.2 11.236 1.232 11.132 1.216 11.004C1.216 10.86 1.216 10.788 1.216 10.788C1.2 10.708 1.256 10.5 1.384 10.164C1.512 9.812 1.632 9.364 1.744 8.82C2.064 7.86 2.368 7.06 2.656 6.42C2.96 5.764 3.256 5.204 3.544 4.74C3.832 4.276 4.12 3.852 4.408 3.468C5.064 2.796 5.592 2.292 5.992 1.956C6.392 1.604 6.84 1.316 7.336 1.092C7.656 0.899999 7.952 0.747999 8.224 0.636C8.496 0.523999 8.72 0.507999 8.896 0.587999C9.792 0.779999 10.464 1.148 10.912 1.692C11.36 2.22 11.688 3.044 11.896 4.164C12.008 4.868 12.072 5.508 12.088 6.084C12.12 6.644 12.08 7.204 11.968 7.764C11.856 8.308 11.648 8.908 11.344 9.564C11.056 10.22 10.648 10.988 10.12 11.868C9.56 12.972 8.928 13.932 8.224 14.748C7.536 15.564 6.824 16.204 6.088 16.668C5.368 17.148 4.664 17.42 3.976 17.484C3.304 17.548 2.712 17.38 2.2 16.98ZM3.736 16.284C4.104 16.236 4.456 16.124 4.792 15.948C5.128 15.772 5.48 15.516 5.848 15.18C6.216 14.828 6.632 14.388 7.096 13.86C7.512 13.38 7.848 12.98 8.104 12.66C8.376 12.324 8.6 11.988 8.776 11.652C8.968 11.316 9.144 10.908 9.304 10.428C9.48 9.948 9.68 9.324 9.904 8.556C10.032 8.076 10.128 7.676 10.192 7.356C10.256 7.036 10.296 6.74 10.312 6.468C10.328 6.18 10.328 5.852 10.312 5.484C10.312 5.116 10.312 4.644 10.312 4.068C10.296 3.796 10.24 3.516 10.144 3.228C10.048 2.924 9.936 2.7 9.808 2.556C9.648 2.38 9.424 2.26 9.136 2.196C8.848 2.116 8.528 2.156 8.176 2.316C7.984 2.396 7.736 2.58 7.432 2.868C7.128 3.14 6.808 3.46 6.472 3.828C6.136 4.196 5.816 4.572 5.512 4.956C5.224 5.34 4.984 5.684 4.792 5.988C4.616 6.276 4.528 6.476 4.528 6.588C4.528 6.588 4.52 6.628 4.504 6.708C4.504 6.788 4.472 6.868 4.408 6.948C4.2 7.172 3.968 7.572 3.712 8.148C3.472 8.724 3.24 9.38 3.016 10.116C2.792 10.836 2.6 11.556 2.44 12.276C2.296 12.98 2.208 13.596 2.176 14.124C2.144 14.556 2.128 14.852 2.128 15.012C2.128 15.172 2.16 15.3 2.224 15.396C2.288 15.476 2.392 15.636 2.536 15.876C2.632 16.036 2.792 16.156 3.016 16.236C3.256 16.316 3.496 16.332 3.736 16.284ZM19.6023 15.396C19.2823 15.396 19.0183 15.332 18.8103 15.204C18.6023 15.06 18.4263 14.828 18.2823 14.508C18.2183 14.284 18.1623 14.036 18.1143 13.764C18.0823 13.476 18.0663 13.212 18.0663 12.972C18.0663 12.716 18.0903 12.548 18.1383 12.468C18.2023 12.404 18.2263 12.292 18.2103 12.132C18.2103 11.956 18.2103 11.772 18.2103 11.58C18.1943 11.26 18.1143 11.084 17.9703 11.052C17.8423 11.004 17.6503 11.052 17.3943 11.196C17.1063 11.372 16.7303 11.612 16.2663 11.916C15.8023 12.204 15.3143 12.524 14.8023 12.876C14.3063 13.228 13.8343 13.596 13.3863 13.98C13.0343 14.364 12.8183 14.66 12.7383 14.868C12.6743 15.06 12.5783 15.156 12.4503 15.156C12.3223 15.22 12.2103 15.228 12.1143 15.18C12.0343 15.116 11.9143 15.02 11.7543 14.892C11.6423 14.764 11.5303 14.644 11.4183 14.532C11.3063 14.404 11.2343 14.308 11.2023 14.244C11.2023 14.164 11.2263 13.996 11.2743 13.74C11.3223 13.484 11.3783 13.228 11.4423 12.972C11.5223 12.716 11.5783 12.548 11.6103 12.468C11.6903 12.468 11.7543 12.388 11.8023 12.228C11.8663 12.068 11.9623 11.892 12.0903 11.7C12.1223 11.508 12.2023 11.252 12.3303 10.932C12.4743 10.596 12.6023 10.3 12.7143 10.044C12.9383 9.66 13.0903 9.34 13.1703 9.084C13.2663 8.828 13.3303 8.508 13.3623 8.124C13.3463 8.06 13.3623 8.004 13.4103 7.956C13.4583 7.892 13.5143 7.86 13.5783 7.86C13.7063 7.732 13.8583 7.7 14.0343 7.764C14.2103 7.812 14.3703 7.932 14.5143 8.124C14.8023 8.508 14.9143 8.908 14.8503 9.324C14.8023 9.724 14.5463 10.3 14.0823 11.052C13.9703 11.308 13.8823 11.508 13.8183 11.652C13.7703 11.78 13.7463 11.884 13.7463 11.964C13.7463 11.964 13.8263 11.908 13.9863 11.796C14.1623 11.684 14.3543 11.556 14.5623 11.412C14.7863 11.252 14.9623 11.132 15.0903 11.052C15.1703 10.972 15.3543 10.828 15.6423 10.62C15.9303 10.412 16.2343 10.212 16.5543 10.02C16.8903 9.812 17.1383 9.692 17.2983 9.66C17.4263 9.596 17.5623 9.54 17.7063 9.492C17.8503 9.428 17.9543 9.396 18.0183 9.396C18.1463 9.396 18.3063 9.468 18.4983 9.612C18.7063 9.74 18.8983 9.9 19.0743 10.092C19.2503 10.268 19.3543 10.42 19.3863 10.548C19.3863 10.612 19.3863 10.676 19.3863 10.74C19.4023 10.804 19.4183 10.868 19.4343 10.932C19.4983 11.14 19.5303 11.42 19.5303 11.772C19.5463 12.124 19.5383 12.444 19.5063 12.732C19.4743 13.02 19.4183 13.188 19.3383 13.236C19.3383 13.236 19.3383 13.26 19.3383 13.308C19.3543 13.34 19.3943 13.356 19.4583 13.356C19.4583 13.42 19.4583 13.46 19.4583 13.476C19.3783 13.476 19.3463 13.548 19.3623 13.692C19.3783 13.82 19.4263 13.964 19.5063 14.124C19.6023 14.284 19.6983 14.412 19.7943 14.508C19.9863 14.7 20.0663 14.884 20.0343 15.06C20.0023 15.22 19.8583 15.332 19.6023 15.396ZM21.0949 15.372C20.9349 15.276 20.8149 15.18 20.7349 15.084C20.6549 14.988 20.6149 14.852 20.6149 14.676C20.6149 14.436 20.6469 14.188 20.7109 13.932C20.7749 13.66 20.8389 13.396 20.9029 13.14C20.9349 12.852 20.9749 12.564 21.0229 12.276C21.0869 11.972 21.1989 11.692 21.3589 11.436C21.5349 10.828 21.7189 10.228 21.9109 9.636C22.1029 9.028 22.2709 8.404 22.4149 7.764C22.6229 7.172 22.8069 6.652 22.9669 6.204C23.1429 5.74 23.3589 5.156 23.6149 4.452C23.7589 4.052 23.8789 3.628 23.9749 3.18C24.0869 2.716 24.2549 2.3 24.4789 1.932C24.5749 1.788 24.6469 1.668 24.6949 1.572C24.7589 1.46 24.8229 1.356 24.8869 1.26C24.9029 1.196 24.9509 1.156 25.0309 1.14C25.1269 1.124 25.2309 1.132 25.3429 1.164C25.4549 1.196 25.5429 1.252 25.6069 1.332C25.6549 1.316 25.7109 1.364 25.7749 1.476C25.8549 1.572 25.9269 1.684 25.9909 1.812C26.0549 1.94 26.0789 2.052 26.0629 2.148C26.0629 2.212 26.0469 2.3 26.0149 2.412C25.9989 2.524 25.9589 2.628 25.8949 2.724C25.8309 2.788 25.7669 2.884 25.7029 3.012C25.6549 3.124 25.5749 3.284 25.4629 3.492C25.3989 3.7 25.3429 3.916 25.2949 4.14C25.2469 4.348 25.1829 4.54 25.1029 4.716C25.0389 4.908 24.9589 5.092 24.8629 5.268C24.7829 5.444 24.7269 5.588 24.6949 5.7C24.5829 6.068 24.4469 6.428 24.2869 6.78C24.1429 7.132 24.0149 7.508 23.9029 7.908C23.7909 8.292 23.6789 8.692 23.5669 9.108C23.4549 9.508 23.2949 9.892 23.0869 10.26C22.9749 10.436 22.8949 10.66 22.8469 10.932C22.7989 11.204 22.7509 11.476 22.7029 11.748C22.6069 12.036 22.5189 12.308 22.4389 12.564C22.3749 12.804 22.3429 12.956 22.3429 13.02C22.2469 13.372 22.1749 13.724 22.1269 14.076C22.0949 14.412 22.0149 14.708 21.8869 14.964C21.8709 15.124 21.8389 15.252 21.7909 15.348C21.7429 15.444 21.6629 15.5 21.5509 15.516C21.4389 15.516 21.2869 15.468 21.0949 15.372ZM25.2456 22.02C25.2296 22.052 25.1576 22.02 25.0296 21.924C24.9176 21.828 24.8056 21.708 24.6936 21.564C24.5816 21.436 24.5336 21.324 24.5496 21.228C24.4856 21.004 24.4936 20.724 24.5736 20.388C24.6696 20.068 24.8696 19.588 25.1736 18.948C25.3336 18.692 25.4776 18.388 25.6056 18.036C25.7496 17.684 25.9096 17.332 26.0856 16.98C26.1656 16.836 26.3416 16.524 26.6136 16.044C26.8856 15.564 27.1736 15.02 27.4776 14.412C27.7976 13.804 28.0616 13.228 28.2696 12.684C27.8536 13.116 27.4696 13.556 27.1176 14.004C26.7656 14.436 26.4376 14.788 26.1336 15.06C25.8456 15.332 25.5736 15.46 25.3176 15.444C25.1096 15.396 24.8856 15.324 24.6456 15.228C24.4216 15.116 24.2696 14.924 24.1896 14.652C24.1256 14.3 24.1016 13.852 24.1176 13.308C24.1496 12.764 24.2536 11.94 24.4296 10.836C24.5576 10.292 24.6296 9.876 24.6456 9.588C24.6776 9.284 24.6696 9.06 24.6216 8.916C24.5736 8.772 24.4856 8.644 24.3576 8.532C24.1496 8.34 24.0376 8.172 24.0216 8.028C24.0216 7.868 24.1336 7.732 24.3576 7.62C24.6936 7.54 24.9336 7.516 25.0776 7.548C25.2216 7.564 25.3976 7.692 25.6056 7.932C25.7336 8.14 25.8456 8.34 25.9416 8.532C26.0536 8.708 26.1096 9.02 26.1096 9.468C26.1096 9.66 26.0776 9.916 26.0136 10.236C25.9656 10.556 25.9176 10.86 25.8696 11.148C25.8376 11.42 25.8136 11.612 25.7976 11.724C25.6376 12.316 25.5336 12.828 25.4856 13.26C25.4536 13.692 25.4776 13.908 25.5576 13.908C25.8776 13.652 26.1816 13.364 26.4696 13.044C26.7736 12.708 27.0856 12.332 27.4056 11.916C27.7416 11.484 28.1096 10.996 28.5096 10.452C28.6536 10.18 28.7976 9.916 28.9416 9.66C29.0856 9.404 29.2056 9.14 29.3016 8.868C29.3976 8.66 29.4936 8.492 29.5896 8.364C29.6856 8.236 29.7656 8.164 29.8296 8.148C29.9096 8.116 30.0056 8.124 30.1176 8.172C30.2456 8.22 30.3576 8.276 30.4536 8.34C30.5656 8.388 30.6216 8.428 30.6216 8.46C30.6376 8.476 30.6776 8.492 30.7416 8.508C30.8056 8.524 30.8696 8.54 30.9336 8.556C31.0136 8.556 31.0536 8.58 31.0536 8.628C31.0536 8.66 31.0136 8.764 30.9336 8.94C30.8696 9.116 30.7896 9.316 30.6936 9.54C30.6136 9.748 30.5416 9.94 30.4776 10.116C30.4136 10.276 30.3896 10.372 30.4056 10.404C30.4376 10.436 30.4136 10.556 30.3336 10.764C30.2536 10.956 30.1576 11.172 30.0456 11.412C29.9496 11.652 29.8616 11.868 29.7816 12.06C29.6216 12.588 29.4376 13.116 29.2296 13.644C29.0216 14.156 28.7736 14.668 28.4856 15.18C28.3896 15.372 28.2456 15.668 28.0536 16.068C27.8776 16.468 27.7016 16.86 27.5256 17.244C27.3656 17.644 27.2376 17.948 27.1416 18.156C27.0776 18.284 26.9816 18.484 26.8536 18.756C26.7416 19.044 26.6136 19.356 26.4696 19.692C26.3416 20.028 26.2136 20.34 26.0856 20.628C25.9576 20.932 25.8616 21.164 25.7976 21.324C25.7656 21.628 25.6936 21.852 25.5816 21.996C25.5176 21.996 25.4456 21.996 25.3656 21.996C25.2856 22.012 25.2456 22.02 25.2456 22.02ZM44.0093 17.652C43.9933 17.748 43.8973 17.772 43.7213 17.724C43.5613 17.692 43.4173 17.58 43.2893 17.388C43.1613 17.084 43.0973 16.804 43.0973 16.548C43.0973 16.292 43.1053 15.908 43.1213 15.396C43.2173 14.836 43.3453 14.108 43.5053 13.212C43.6813 12.3 43.8813 11.284 44.1053 10.164C44.3453 9.028 44.6013 7.844 44.8733 6.612C45.0653 5.972 45.2173 5.388 45.3293 4.86C45.4573 4.316 45.5533 3.876 45.6173 3.54C45.6813 3.204 45.7133 3.036 45.7133 3.036C45.7133 2.988 45.6653 3.012 45.5693 3.108C45.4893 3.188 45.4093 3.284 45.3293 3.396C45.2493 3.508 45.2173 3.596 45.2333 3.66C45.2333 3.66 45.1773 3.74 45.0653 3.9C44.9533 4.06 44.8093 4.276 44.6333 4.548C44.4733 4.708 44.2813 5.028 44.0573 5.508C43.8333 5.988 43.5853 6.436 43.3133 6.852C43.0573 7.332 42.7853 7.852 42.4973 8.412C42.2093 8.956 41.9533 9.412 41.7293 9.78C41.5853 9.988 41.4413 10.228 41.2973 10.5C41.1533 10.772 41.0653 10.948 41.0333 11.028C40.9693 11.204 40.8573 11.42 40.6973 11.676C40.5373 11.916 40.3613 12.156 40.1693 12.396C40.0733 12.54 39.9773 12.692 39.8813 12.852C39.7853 12.996 39.7053 13.124 39.6413 13.236C39.5933 13.332 39.5693 13.38 39.5693 13.38C39.5693 13.428 39.4893 13.572 39.3293 13.812C39.1853 14.052 39.0013 14.316 38.7773 14.604C38.5693 14.892 38.3693 15.14 38.1773 15.348C37.6173 15.94 37.1693 16.292 36.8333 16.404C36.4973 16.5 36.1213 16.356 35.7053 15.972C35.4973 15.716 35.3453 15.428 35.2493 15.108C35.1533 14.772 35.1133 14.364 35.1293 13.884C35.1453 13.388 35.2013 12.772 35.2973 12.036C35.4093 11.476 35.5133 10.916 35.6093 10.356C35.7053 9.78 35.7933 9.244 35.8733 8.748C35.9693 8.236 36.0493 7.804 36.1133 7.452C36.1933 7.1 36.2573 6.868 36.3053 6.756C36.3373 6.436 36.3293 6.26 36.2813 6.228C36.2333 6.196 36.1373 6.292 35.9933 6.516C35.9293 6.628 35.7613 6.908 35.4893 7.356C35.2173 7.788 34.8973 8.324 34.5293 8.964C34.1773 9.604 33.8253 10.3 33.4733 11.052C32.8173 12.268 32.2733 13.276 31.8413 14.076C31.4253 14.86 31.0893 15.484 30.8333 15.948C30.5933 16.412 30.4173 16.756 30.3053 16.98C30.1933 17.204 30.1133 17.356 30.0653 17.436C30.0173 17.516 29.9773 17.572 29.9453 17.604C29.8013 17.604 29.6493 17.54 29.4893 17.412C29.3453 17.3 29.1933 17.164 29.0333 17.004C28.9853 16.892 28.9613 16.78 28.9613 16.668C28.9773 16.556 29.0333 16.396 29.1293 16.188C29.2253 15.964 29.3693 15.628 29.5613 15.18C29.7693 14.764 29.9613 14.404 30.1373 14.1C30.3133 13.78 30.4493 13.588 30.5453 13.524C30.6253 13.396 30.6973 13.268 30.7613 13.14C30.8253 13.012 30.8653 12.86 30.8813 12.684C30.9613 12.588 31.0813 12.396 31.2413 12.108C31.4173 11.804 31.5933 11.476 31.7693 11.124C31.8973 10.916 32.0573 10.644 32.2493 10.308C32.4573 9.972 32.6733 9.604 32.8973 9.204C33.1213 8.788 33.3213 8.396 33.4973 8.028C34.2333 6.764 34.8573 5.7 35.3693 4.836C35.8813 3.956 36.2653 3.396 36.5213 3.156C36.6013 3.076 36.6813 2.964 36.7613 2.82C36.8573 2.676 36.9053 2.548 36.9053 2.436C36.9053 2.1 36.9693 1.796 37.0973 1.524C37.2413 1.236 37.3853 1.108 37.5293 1.14C37.6893 1.14 37.8333 1.156 37.9613 1.188C38.0893 1.22 38.2253 1.324 38.3693 1.5C38.4973 1.692 38.6093 1.884 38.7053 2.076C38.8013 2.268 38.7933 2.652 38.6813 3.228C38.6813 3.452 38.6573 3.708 38.6093 3.996C38.5613 4.268 38.5133 4.524 38.4653 4.764C38.4333 4.988 38.4093 5.164 38.3933 5.292C38.1853 5.916 37.9933 6.62 37.8173 7.404C37.6413 8.172 37.4813 8.956 37.3373 9.756C37.1933 10.54 37.0733 11.276 36.9773 11.964C36.8813 12.636 36.8173 13.196 36.7853 13.644C36.7693 14.076 36.7853 14.324 36.8333 14.388C36.9453 14.452 37.0413 14.46 37.1213 14.412C37.2013 14.364 37.3373 14.156 37.5293 13.788C37.6413 13.596 37.7933 13.364 37.9853 13.092C38.1933 12.804 38.3933 12.54 38.5853 12.3C38.7133 12.076 38.9133 11.74 39.1853 11.292C39.4573 10.844 39.8013 10.268 40.2173 9.564C40.6493 8.86 41.1613 8.004 41.7533 6.996C42.3613 5.972 43.0493 4.788 43.8173 3.444C44.1853 2.884 44.5293 2.34 44.8493 1.812C45.1853 1.268 45.4573 0.915999 45.6653 0.756C45.8893 0.547999 46.1213 0.499999 46.3613 0.611999C46.6013 0.707999 46.8093 0.915999 46.9853 1.236C47.1773 1.556 47.2813 1.956 47.2973 2.436C47.3133 2.66 47.2813 3.02 47.2013 3.516C47.1373 4.012 47.0333 4.58 46.8893 5.22C46.7453 5.844 46.5613 6.492 46.3373 7.164C46.2893 7.436 46.2093 7.78 46.0973 8.196C46.0013 8.596 45.8893 9.012 45.7613 9.444C45.6333 9.876 45.5053 10.284 45.3773 10.668C45.2973 11.196 45.2013 11.716 45.0893 12.228C44.9933 12.74 44.9613 13.084 44.9933 13.26C44.8493 13.516 44.7533 13.884 44.7053 14.364C44.6573 14.844 44.6333 15.34 44.6333 15.852C44.5693 16.476 44.5213 16.916 44.4893 17.172C44.4573 17.428 44.4013 17.548 44.3213 17.532C44.1133 17.468 44.0093 17.508 44.0093 17.652ZM50.8428 15.66C50.5068 15.948 50.1148 16.116 49.6668 16.164C49.2348 16.212 48.8108 16.148 48.3948 15.972C47.9788 15.78 47.6348 15.492 47.3628 15.108C47.0908 14.756 46.9148 14.356 46.8348 13.908C46.7548 13.444 46.7468 12.844 46.8108 12.108C46.8588 11.484 47.0588 10.86 47.4108 10.236C47.7628 9.596 48.1868 9.028 48.6828 8.532C49.1948 8.036 49.6988 7.692 50.1948 7.5C50.4348 7.34 50.6348 7.268 50.7948 7.284C50.9708 7.284 51.2348 7.3 51.5868 7.332C51.9548 7.38 52.2268 7.452 52.4028 7.548C52.5948 7.644 52.7468 7.772 52.8588 7.932C53.0988 8.172 53.2588 8.412 53.3388 8.652C53.4188 8.876 53.4588 9.1 53.4588 9.324C53.3948 9.676 53.1548 10.108 52.7388 10.62C52.3388 11.116 51.8108 11.524 51.1548 11.844C50.8028 11.956 50.4188 12.004 50.0028 11.988C49.5868 11.972 49.2428 11.868 48.9708 11.676C48.6668 11.548 48.4668 11.572 48.3708 11.748C48.2748 11.908 48.1868 12.308 48.1068 12.948C48.0428 13.556 48.0908 14.004 48.2508 14.292C48.4108 14.564 48.6268 14.724 48.8988 14.772C49.2188 14.836 49.4668 14.884 49.6428 14.916C49.8348 14.932 50.0668 14.86 50.3388 14.7C50.5948 14.54 50.7548 14.452 50.8188 14.436C50.8828 14.404 50.9308 14.372 50.9628 14.34C51.0108 14.292 51.1148 14.188 51.2747 14.028C51.3868 13.916 51.4748 13.836 51.5388 13.788C51.6028 13.724 51.6748 13.692 51.7548 13.692C51.8348 13.692 51.9068 13.732 51.9708 13.812C52.0348 13.876 52.0988 13.924 52.1628 13.956C52.3228 13.956 52.3548 14.052 52.2588 14.244C52.1788 14.436 52.0108 14.668 51.7548 14.94C51.4988 15.196 51.1948 15.436 50.8428 15.66ZM50.8188 10.572C50.9948 10.492 51.1788 10.38 51.3708 10.236C51.5628 10.076 51.7228 9.908 51.8508 9.732C51.9948 9.54 52.0668 9.38 52.0668 9.252C52.0668 9.028 51.9628 8.844 51.7548 8.7C51.5468 8.54 51.2348 8.516 50.8188 8.628C50.6428 8.676 50.4427 8.796 50.2188 8.988C49.9948 9.164 49.7788 9.364 49.5708 9.588C49.3788 9.812 49.2188 10.012 49.0908 10.188C48.9788 10.364 48.9388 10.468 48.9708 10.5C49.0188 10.58 49.1548 10.644 49.3788 10.692C49.6028 10.724 49.8508 10.732 50.1228 10.716C50.4108 10.7 50.6428 10.652 50.8188 10.572ZM64.0474 15.492C63.9674 15.46 63.8474 15.38 63.6874 15.252C63.5274 15.124 63.3914 14.908 63.2794 14.604C63.1674 14.284 63.1114 13.844 63.1114 13.284C63.1274 12.804 63.1354 12.428 63.1354 12.156C63.1514 11.884 63.0954 11.748 62.9674 11.748C62.8394 11.748 62.5914 11.876 62.2234 12.132C61.8714 12.372 61.4634 12.7 60.9994 13.116C60.5354 13.532 60.0634 13.996 59.5834 14.508C59.4234 14.684 59.2634 14.852 59.1034 15.012C58.9594 15.156 58.8154 15.252 58.6714 15.3C58.5274 15.332 58.3594 15.276 58.1674 15.132L57.9034 14.916C57.8234 14.836 57.7754 14.756 57.7594 14.676C57.7434 14.58 57.7514 14.476 57.7834 14.364L58.3354 12.78C58.5914 12.204 58.7674 11.788 58.8634 11.532C58.9594 11.26 59.0074 11.092 59.0074 11.028C59.0074 10.948 58.9834 10.916 58.9354 10.932C58.8074 10.948 58.6154 11.028 58.3594 11.172C58.1034 11.3 57.9354 11.428 57.8554 11.556C57.7914 11.556 57.6954 11.628 57.5674 11.772C57.4394 11.916 57.2794 12.052 57.0874 12.18C56.9754 12.372 56.7514 12.62 56.4154 12.924C56.0954 13.228 55.7754 13.54 55.4554 13.86C55.2474 14.036 55.0394 14.252 54.8314 14.508C54.6394 14.764 54.4714 14.988 54.3274 15.18C54.1994 15.372 54.1114 15.468 54.0634 15.468C53.8554 15.468 53.6634 15.412 53.4874 15.3C53.3274 15.188 53.2074 15.004 53.1274 14.748C52.9994 14.476 52.9994 14.1 53.1274 13.62C53.2554 13.124 53.3994 12.484 53.5594 11.7C53.6234 11.46 53.6634 11.284 53.6794 11.172C53.6954 11.06 53.7194 10.948 53.7514 10.836C53.7994 10.708 53.8714 10.516 53.9674 10.26C54.0794 10.004 54.2474 9.62 54.4714 9.108C54.5834 8.804 54.6474 8.58 54.6634 8.436C54.6954 8.276 54.7114 8.164 54.7114 8.1C54.7114 7.94 54.7514 7.804 54.8314 7.692C54.9274 7.58 55.0394 7.5 55.1674 7.452C55.2954 7.404 55.4154 7.396 55.5274 7.428C55.7034 7.46 55.8554 7.548 55.9834 7.692C56.1274 7.836 56.2074 8.036 56.2234 8.292C56.2394 8.484 56.2234 8.66 56.1754 8.82C56.1274 8.964 56.0794 9.1 56.0314 9.228L55.7674 9.876C55.6874 10.052 55.5834 10.308 55.4554 10.644C55.3274 10.98 55.2154 11.292 55.1194 11.58C55.0234 11.852 54.9754 12.012 54.9754 12.06C54.9914 12.108 55.0474 12.1 55.1434 12.036C55.2394 11.956 55.3594 11.852 55.5034 11.724C55.6634 11.58 55.8234 11.444 55.9834 11.316C56.3194 10.996 56.6954 10.692 57.1114 10.404C57.5434 10.1 57.9514 9.844 58.3354 9.636C58.7194 9.428 59.0154 9.292 59.2234 9.228C59.4954 9.228 59.6794 9.276 59.7754 9.372C59.8874 9.468 60.0714 9.644 60.3274 9.9C60.4394 10.012 60.5034 10.156 60.5194 10.332C60.5354 10.508 60.5274 10.676 60.4954 10.836C60.4794 10.9 60.4314 11.06 60.3514 11.316C60.2714 11.556 60.1914 11.788 60.1114 12.012C60.0474 12.236 60.0154 12.348 60.0154 12.348C60.0154 12.348 60.1034 12.268 60.2794 12.108C60.4714 11.948 60.6794 11.78 60.9034 11.604C61.1274 11.412 61.2954 11.268 61.4074 11.172C62.0314 10.692 62.5754 10.388 63.0394 10.26C63.5034 10.132 63.8794 10.3 64.1674 10.764C64.3594 10.94 64.4554 11.132 64.4554 11.34C64.4714 11.548 64.4794 11.908 64.4794 12.42C64.4954 12.628 64.5114 12.876 64.5274 13.164C64.5434 13.452 64.5594 13.716 64.5754 13.956C64.6074 14.18 64.6394 14.316 64.6714 14.364C64.7194 14.428 64.8074 14.484 64.9354 14.532C65.0794 14.564 65.2634 14.596 65.4874 14.628C65.7274 14.66 65.8714 14.764 65.9194 14.94C65.9674 15.116 65.8634 15.284 65.6074 15.444C65.3674 15.588 65.1034 15.652 64.8154 15.636C64.5274 15.62 64.2714 15.572 64.0474 15.492ZM67.7571 16.572C67.0531 16.572 66.4771 16.308 66.0291 15.78C65.5811 15.236 65.3651 14.564 65.3811 13.764C65.4131 13.188 65.5251 12.572 65.7171 11.916C65.9251 11.244 66.1971 10.604 66.5331 9.996C66.8691 9.372 67.2371 8.828 67.6371 8.364C68.0371 7.9 68.4531 7.572 68.8851 7.38C69.0451 7.3 69.2131 7.236 69.3891 7.188C69.5811 7.14 69.7731 7.116 69.9651 7.116C70.1411 7.116 70.3251 7.148 70.5171 7.212C70.7091 7.26 70.8691 7.316 70.9971 7.38C71.2691 7.492 71.4771 7.628 71.6211 7.788C71.7651 7.948 71.8931 8.196 72.0051 8.532C72.0531 8.836 72.0771 9.052 72.0771 9.18C72.0771 9.308 72.0371 9.5 71.9571 9.756C71.7651 10.332 71.5171 10.828 71.2131 11.244C70.9091 11.66 70.5011 12.012 69.9891 12.3C69.8611 12.38 69.7091 12.444 69.5331 12.492C69.3731 12.524 69.2051 12.54 69.0291 12.54C68.7091 12.54 68.3971 12.484 68.0931 12.372C67.8051 12.244 67.5731 12.06 67.3971 11.82L67.2291 11.628L67.1571 11.82C66.9971 12.252 66.8691 12.652 66.7731 13.02C66.6931 13.388 66.6531 13.724 66.6531 14.028C66.6531 14.22 66.6691 14.404 66.7011 14.58C66.7491 14.756 66.8131 14.908 66.8931 15.036C66.9571 15.132 67.0611 15.204 67.2051 15.252C67.3651 15.284 67.5331 15.3 67.7091 15.3C67.8211 15.3 67.9331 15.3 68.0451 15.3C68.1731 15.284 68.2931 15.252 68.4051 15.204C68.6771 15.108 68.8931 15.004 69.0531 14.892C69.2291 14.78 69.4051 14.66 69.5811 14.532L69.6771 14.484H69.6531C69.8451 14.388 70.0131 14.292 70.1571 14.196C70.3171 14.1 70.3971 14.052 70.3971 14.052C70.4611 14.052 70.5251 14.012 70.5891 13.932C70.7171 13.868 70.8771 13.892 71.0691 14.004C71.2771 14.116 71.3811 14.26 71.3811 14.436C71.3651 14.516 71.2931 14.644 71.1651 14.82C71.0371 14.98 70.8931 15.132 70.7331 15.276C70.5891 15.42 70.4691 15.5 70.3731 15.516C70.3571 15.532 70.3011 15.564 70.2051 15.612C70.1091 15.644 70.0451 15.676 70.0131 15.708H70.0371C69.8931 15.9 69.7491 15.996 69.6051 15.996H69.4131C69.3491 16.108 69.1411 16.236 68.7891 16.38C68.4371 16.508 68.0931 16.572 67.7571 16.572ZM68.8371 11.292C69.1251 11.292 69.3731 11.212 69.5811 11.052C69.8051 10.876 69.9971 10.684 70.1571 10.476C70.4771 10.044 70.6611 9.628 70.7091 9.228C70.7731 8.812 70.7251 8.524 70.5651 8.364C70.4691 8.316 70.3811 8.292 70.3011 8.292C70.2371 8.276 70.1011 8.3 69.8931 8.364C69.7491 8.396 69.5491 8.516 69.2931 8.724C69.0371 8.932 68.7811 9.164 68.5251 9.42C68.2851 9.676 68.1011 9.892 67.9731 10.068L67.6611 10.572C67.7891 10.524 67.9091 10.5 68.0211 10.5C68.1491 10.484 68.2211 10.492 68.2371 10.524C68.2371 10.668 68.2611 10.804 68.3091 10.932C68.3731 11.044 68.4451 11.132 68.5251 11.196C68.6211 11.26 68.7251 11.292 68.8371 11.292ZM74.3378 16.284C73.9378 16.316 73.5538 16.292 73.1858 16.212C72.8338 16.132 72.5298 15.996 72.2738 15.804C72.0338 15.596 71.8658 15.348 71.7698 15.06C71.6578 14.836 71.6018 14.684 71.6018 14.604C71.6018 14.508 71.6578 14.428 71.7698 14.364C71.8978 14.364 72.0098 14.404 72.1058 14.484C72.2178 14.548 72.3618 14.62 72.5378 14.7C72.7778 14.908 73.0658 15.02 73.4018 15.036C73.7538 15.052 74.0738 14.996 74.3618 14.868C74.6498 14.74 74.8098 14.58 74.8418 14.388C74.8418 14.324 74.8178 14.212 74.7698 14.052C74.7218 13.892 74.6658 13.724 74.6018 13.548C74.1698 12.94 73.8498 12.34 73.6418 11.748C73.4498 11.14 73.3538 10.644 73.3538 10.26C73.3538 9.972 73.4418 9.668 73.6178 9.348C73.7938 9.012 74.0338 8.732 74.3378 8.508C74.6258 8.204 74.9458 7.932 75.2978 7.692C75.6498 7.452 76.0018 7.244 76.3538 7.068C76.7218 6.892 77.0498 6.764 77.3378 6.684C77.5138 6.684 77.7458 6.708 78.0338 6.756C78.3218 6.804 78.5218 6.86 78.6338 6.924C78.8098 6.988 78.9778 7.164 79.1378 7.452C79.2978 7.724 79.3778 7.996 79.3778 8.268C79.3778 8.38 79.3458 8.524 79.2818 8.7C79.2178 8.876 79.1138 9.084 78.9698 9.324C78.9058 9.5 78.8338 9.668 78.7538 9.828C78.6738 9.972 78.6338 10.076 78.6338 10.14C78.5538 10.316 78.4418 10.404 78.2978 10.404C78.1698 10.388 78.0338 10.316 77.8898 10.188C77.7618 10.044 77.6578 9.876 77.5778 9.684C77.5138 9.444 77.4898 9.252 77.5058 9.108C77.5218 8.948 77.5858 8.78 77.6978 8.604C77.8738 8.428 77.9618 8.308 77.9618 8.244C77.9618 8.18 77.8738 8.148 77.6978 8.148C77.5858 8.148 77.3778 8.22 77.0738 8.364C76.7858 8.492 76.4738 8.668 76.1378 8.892C75.8178 9.1 75.5378 9.324 75.2978 9.564C74.9938 9.852 74.8098 10.06 74.7458 10.188C74.6978 10.316 74.6738 10.516 74.6738 10.788C74.6738 11.012 74.7218 11.292 74.8178 11.628C74.9298 11.964 75.0418 12.188 75.1538 12.3C75.1538 12.3 75.2098 12.412 75.3218 12.636C75.4338 12.844 75.5698 13.068 75.7298 13.308C76.1938 14.332 76.3138 15.068 76.0898 15.516C75.8658 15.964 75.2818 16.22 74.3378 16.284Z" fill="black"/>
</svg>
